<svg width="1440" height="527" viewBox="0 0 1440 527" fill="none" xmlns="http://www.w3.org/2000/svg">
<g filter="url(#filter0_d_4618_301)">
<path d="M1834.81 38.1833C1839.54 -53.0556 1561.91 182.395 1389.1 100.972C1216.28 19.5485 950.367 274.892 699.974 250.389C449.581 225.885 206.413 238.275 23.2958 284.867C-159.821 331.458 -268.094 408.488 -278 499.221L-244.499 502.373C-235.561 420.502 -78.5599 357.276 86.672 315.235C251.904 273.194 471.322 262.015 697.259 284.125C923.196 306.235 1239.93 77.0056 1395.86 150.476C1551.8 223.947 1820.7 1.51706 1816.42 83.8447L1834.81 38.1833Z" fill="url(#paint0_linear_4618_301)"/>
</g>
<defs>
<filter id="filter0_d_4618_301" x="-298" y="0.80835" width="2152.87" height="525.564" filterUnits="userSpaceOnUse" color-interpolation-filters="sRGB">
<feFlood flood-opacity="0" result="BackgroundImageFix"/>
<feColorMatrix in="SourceAlpha" type="matrix" values="0 0 0 0 0 0 0 0 0 0 0 0 0 0 0 0 0 0 127 0" result="hardAlpha"/>
<feOffset dy="4"/>
<feGaussianBlur stdDeviation="10"/>
<feComposite in2="hardAlpha" operator="out"/>
<feColorMatrix type="matrix" values="0 0 0 0 0 0 0 0 0 0 0 0 0 0 0 0 0 0 0.25 0"/>
<feBlend mode="normal" in2="BackgroundImageFix" result="effect1_dropShadow_4618_301"/>
<feBlend mode="normal" in="SourceGraphic" in2="effect1_dropShadow_4618_301" result="shape"/>
</filter>
<linearGradient id="paint0_linear_4618_301" x1="-283.681" y1="596.408" x2="1628.03" y2="592.94" gradientUnits="userSpaceOnUse">
<stop offset="0.22" stop-color="#5C33BC"/>
<stop offset="0.533654" stop-color="#2951A6"/>
<stop offset="0.754808" stop-color="#5C33BC"/>
</linearGradient>
</defs>
</svg>
