<svg width="76" height="122" viewBox="0 0 76 122" fill="none" xmlns="http://www.w3.org/2000/svg">
<path d="M73.023 0V8.105L42.2259 44.9286C49.1943 45.8054 55.7918 48.5732 61.307 52.9337C66.8222 57.2942 71.0457 63.0818 73.5221 69.6724C75.9986 76.263 76.634 83.4066 75.3598 90.3327C74.0856 97.2588 70.9501 103.705 66.2916 108.975C61.6331 114.246 55.6282 118.141 48.9245 120.241C42.2209 122.34 35.0728 122.565 28.2512 120.891C21.4296 119.216 15.1932 115.706 10.2146 110.738C5.2361 105.77 1.70425 99.5341 0 92.7016L11.5118 89.8095C13.11 96.1333 16.9542 101.655 22.3232 105.339C27.6921 109.022 34.2169 110.615 40.6734 109.817C47.1298 109.02 53.0743 105.887 57.3914 101.007C61.7086 96.1271 64.1018 89.835 64.1221 83.3113C64.1235 78.7502 62.9631 74.2644 60.7511 70.2791C58.5391 66.2938 55.3486 62.9412 51.4823 60.5391C47.616 58.137 43.202 56.7651 38.6587 56.5534C34.1155 56.3418 29.5936 57.2973 25.5219 59.3295L24.1689 60.0555L20.0745 52.8729L54.3608 11.9016H4.78275V0H73.023Z" fill="white" fill-opacity="0.9"/>
</svg>
