<svg width="75" height="122" viewBox="0 0 75 122" fill="none" xmlns="http://www.w3.org/2000/svg">
<path d="M37.5 0C45.1212 0 51.8308 2.02171 57.3865 5.77467C62.9423 9.52181 67.3442 15.0002 70.3615 21.9135C73.3731 28.8269 75 37.1635 75 46.6447V75.3553C75 84.8365 73.3731 93.179 70.3615 100.086C67.3442 107 62.9423 112.478 57.3808 116.225C51.8308 119.978 45.1212 122 37.5 122C29.8788 122 23.1692 119.978 17.6135 116.225C12.0577 112.478 7.65577 107 4.63846 100.086C1.62692 93.1732 0 84.8365 0 75.3553V46.6447C0 37.1635 1.62692 28.821 4.63846 21.9135C7.65577 15.0002 12.0577 9.52181 17.6192 5.77467C23.1635 2.02171 29.8731 0 37.5 0ZM37.5 11.619C32.2154 11.619 27.7269 12.932 24.0404 15.4243C20.3654 17.905 17.3596 21.6405 15.2019 26.5786C12.825 32.0395 11.5385 38.825 11.5385 46.6447V75.3553C11.5385 83.175 12.825 89.9605 15.2019 95.4156C17.3596 100.365 20.3654 104.095 24.0404 106.576C27.7269 109.062 32.2154 110.381 37.5 110.381C42.7846 110.381 47.2731 109.062 50.9596 106.576C54.6346 104.095 57.6404 100.36 59.7923 95.4214C62.175 89.9605 63.4615 83.175 63.4615 75.3553V46.6447C63.4615 38.825 62.175 32.0395 59.7923 26.5844C57.6404 21.6405 54.6346 17.905 50.9654 15.4243C47.2731 12.932 42.7846 11.619 37.5 11.619Z" fill="white" fill-opacity="0.9"/>
</svg>
