<svg width="71" height="122" viewBox="0 0 71 122" fill="none" xmlns="http://www.w3.org/2000/svg">
<path d="M59.1667 35.7063C59.1667 29.3928 56.6732 23.3379 52.2349 18.8736C47.7965 14.4092 41.7768 11.9012 35.5 11.9012C29.2232 11.9012 23.2035 14.4092 18.7651 18.8736C14.3268 23.3379 11.8333 29.3928 11.8333 35.7063H0C0.00021878 29.9924 1.3637 24.3619 3.97591 19.2879C6.58812 14.2139 10.3728 9.84458 15.0119 6.54689C19.6511 3.24921 25.0093 1.11951 30.6365 0.336696C36.2636 -0.446119 41.9954 0.14081 47.3502 2.04818C52.7051 3.95555 57.5267 7.12766 61.41 11.298C65.2933 15.4684 68.125 20.5153 69.667 26.0147C71.2091 31.5141 71.4165 37.3054 70.272 42.9022C69.1274 48.499 66.6643 53.7377 63.0894 58.1784L19.7853 110.091L71 110.097V122H0V115.293L53.6287 51.0071C57.2143 46.7254 59.1763 41.3046 59.1667 35.7063Z" fill="white" fill-opacity="0.9"/>
</svg>
