<svg width="392" height="782" viewBox="0 0 392 782" fill="none" xmlns="http://www.w3.org/2000/svg">
<g filter="url(#filter0_d_88_128)">
<path d="M716.826 76.9134C722.414 -30.7023 630.555 117.035 548.919 32.4935C467.283 -52.048 293.207 235.387 171.574 222.827C49.9414 210.268 -76.0106 233.942 -167.275 300.631C-258.54 367.319 -325.344 648.992 -333.443 756.348L-317.165 757.88C-309.857 661.009 -230.775 576.453 -148.424 516.278C-66.0731 456.103 41.6838 428.706 151.437 440.039C261.19 451.372 424.374 161.203 498.036 237.487C571.698 313.771 711.237 34.7057 706.194 131.811L716.826 76.9134Z" fill="url(#paint0_linear_88_128)" fill-opacity="0.4" shape-rendering="crispEdges"/>
</g>
<defs>
<filter id="filter0_d_88_128" x="-353.443" y="0.90332" width="1090.51" height="780.977" filterUnits="userSpaceOnUse" color-interpolation-filters="sRGB">
<feFlood flood-opacity="0" result="BackgroundImageFix"/>
<feColorMatrix in="SourceAlpha" type="matrix" values="0 0 0 0 0 0 0 0 0 0 0 0 0 0 0 0 0 0 127 0" result="hardAlpha"/>
<feOffset dy="4"/>
<feGaussianBlur stdDeviation="10"/>
<feComposite in2="hardAlpha" operator="out"/>
<feColorMatrix type="matrix" values="0 0 0 0 0 0 0 0 0 0 0 0 0 0 0 0 0 0 0.25 0"/>
<feBlend mode="normal" in2="BackgroundImageFix" result="effect1_dropShadow_88_128"/>
<feBlend mode="normal" in="SourceGraphic" in2="effect1_dropShadow_88_128" result="shape"/>
</filter>
<linearGradient id="paint0_linear_88_128" x1="-335.778" y1="742.086" x2="595.069" y2="769.754" gradientUnits="userSpaceOnUse">
<stop offset="0.22" stop-color="#5C33BC"/>
<stop offset="0.533654" stop-color="#2951A6"/>
<stop offset="0.875" stop-color="#5C33BC"/>
</linearGradient>
</defs>
</svg>
