<svg width="779" height="779" viewBox="0 0 779 779" fill="none" xmlns="http://www.w3.org/2000/svg">
<circle cx="389.5" cy="389.5" r="389.5" fill="url(#paint0_radial_469_21)"/>
<path d="M187.033 242.865C187.033 236.415 188.61 230.957 191.369 226.987C194.523 222.522 199.254 220.537 204.774 220.537H490.216C492.531 220.392 494.844 220.845 497.014 221.869C499.184 222.893 501.164 224.466 502.832 226.491C506.381 229.964 507.958 235.422 507.958 242.865V268.17C508.101 274.039 506.401 279.744 503.227 284.047C500.467 288.513 496.13 290.498 490.216 290.498H410.576C392.046 290.498 381.401 294.963 379.036 303.895C377.462 307.576 376.521 311.633 376.276 315.803C375.701 322.227 375.438 328.689 375.487 335.154V545.532C375.631 551.402 373.931 557.106 370.756 561.41C367.996 565.875 363.66 567.86 357.746 567.86H337.244C332.528 568.059 327.912 566.123 324.234 562.402C321.08 558.929 319.503 552.975 319.503 545.532V335.154C319.503 311.833 315.955 298.437 309.252 295.46C305.31 291.986 296.636 290.498 284.414 290.498H204.774C200.182 290.666 195.697 288.726 192.158 285.04C190.397 282.851 189.028 280.213 188.144 277.303C187.26 274.393 186.881 271.279 187.033 268.17V242.865Z" fill="#E95F24"/>
<path d="M575.748 305.731H551.684C547.531 305.731 543.547 303.655 540.61 299.959C537.673 296.262 536.023 291.249 536.023 286.022V231.709C536.023 220.83 543.032 212 551.684 212H575.748C584.4 212 591.409 220.821 591.409 231.709V286.013C591.409 296.911 584.4 305.731 575.748 305.731Z" fill="white"/>
<path d="M536.797 345.584C536.797 341.163 538.374 337.422 541.134 334.701C544.288 331.64 549.019 330.28 554.538 330.28H574.646C576.897 330.207 579.143 330.532 581.244 331.233C583.346 331.935 585.259 332.999 586.868 334.361C590.416 336.742 591.993 340.482 591.993 345.584V553.029C592.127 556.99 590.585 560.858 587.656 563.911C584.896 566.972 580.559 568.332 574.646 568.332H554.538C549.822 568.469 545.206 567.141 541.528 564.591C538.374 561.871 536.797 557.79 536.797 553.029V345.584Z" fill="#E95F24"/>
<defs>
<radialGradient id="paint0_radial_469_21" cx="0" cy="0" r="1" gradientUnits="userSpaceOnUse" gradientTransform="translate(389.5 389.5) rotate(90) scale(389.5)">
<stop stop-color="#33229E"/>
<stop offset="1" stop-color="#120C38"/>
</radialGradient>
</defs>
</svg>
